<svg width="49" height="33" viewBox="0 0 49 33" fill="none" xmlns="http://www.w3.org/2000/svg">
<path d="M44.5 2.30005C45.0304 2.30005 45.5391 2.51076 45.9142 2.88584C46.2893 3.26091 46.5 3.76962 46.5 4.30005V28.3C46.5 28.8305 46.2893 29.3392 45.9142 29.7143C45.5391 30.0893 45.0304 30.3 44.5 30.3H4.5C3.96957 30.3 3.46086 30.0893 3.08578 29.7143C2.71071 29.3392 2.5 28.8305 2.5 28.3V4.30005C2.5 3.76962 2.71071 3.26091 3.08578 2.88584C3.46086 2.51076 3.96957 2.30005 4.5 2.30005H44.5ZM44.5 0.300049H4.5C3.43913 0.300049 2.42172 0.721476 1.67157 1.47162C0.921424 2.22177 0.5 3.23918 0.5 4.30005V28.3C0.5 29.3609 0.921424 30.3783 1.67157 31.1285C2.42172 31.8786 3.43913 32.3 4.5 32.3H44.5C45.5609 32.3 46.5783 31.8786 47.3284 31.1285C48.0786 30.3783 48.5 29.3609 48.5 28.3V4.30005C48.5 3.23918 48.0786 2.22177 47.3284 1.47162C46.5783 0.721476 45.5609 0.300049 44.5 0.300049Z" fill="#F4F3F4"/>
<path d="M22.72 25.7599C21.1025 26.5814 19.3013 26.9744 17.4886 26.9013C15.6759 26.8283 13.9122 26.2917 12.366 25.3428C10.8198 24.3938 9.54278 23.0643 8.65687 21.4811C7.77096 19.898 7.30579 18.1141 7.30579 16.2999C7.30579 14.4858 7.77096 12.7019 8.65687 11.1188C9.54278 9.53561 10.8198 8.20606 12.366 7.25713C13.9122 6.3082 15.6759 5.77158 17.4886 5.69854C19.3013 5.62551 21.1025 6.01849 22.72 6.83994C21.3683 8.01628 20.2863 9.47033 19.5477 11.1029C18.809 12.7354 18.4312 14.5081 18.44 16.2999C18.4454 18.0895 18.8296 19.8577 19.5673 21.4881C20.305 23.1186 21.3794 24.5744 22.72 25.7599Z" fill="#F4F3F4"/>
<path d="M40.6399 22.87V22.53H40.7899V22.46H40.4399V22.53H40.5799V22.87H40.6399ZM41.3199 22.87V22.46H41.2199L41.0899 22.75L40.9699 22.46H40.8599V22.87H40.9399V22.56L41.0599 22.83H41.1399L41.2499 22.56V22.87H41.3199Z" fill="#222C37"/>
<path d="M41.66 16.3C41.6598 18.1105 41.1959 19.8907 40.3125 21.4711C39.4291 23.0514 38.1556 24.3792 36.6135 25.3277C35.0713 26.2762 33.312 26.814 31.5031 26.8897C29.6941 26.9653 27.896 26.5764 26.28 25.76C28.6931 23.626 30.2005 20.6513 30.4941 17.4434C30.7878 14.2355 29.8456 11.0366 27.86 8.49997C27.384 7.89408 26.848 7.33791 26.26 6.83997C27.8764 6.0159 29.6774 5.62092 31.4902 5.69291C33.3031 5.7649 35.0671 6.30144 36.613 7.25109C38.159 8.20073 39.435 9.53163 40.3188 11.1161C41.2025 12.7007 41.6644 14.4857 41.66 16.3Z" fill="#F4F3F4"/>
<path d="M24.5 24.64C23.2358 23.6482 22.2136 22.3821 21.5107 20.9373C20.8078 19.4924 20.4425 17.9067 20.4425 16.3C20.4425 14.6932 20.8078 13.1075 21.5107 11.6626C22.2136 10.2178 23.2358 8.95168 24.5 7.95996C25.7625 8.9528 26.7831 10.2193 27.4849 11.664C28.1867 13.1087 28.5513 14.6938 28.5513 16.3C28.5513 17.9061 28.1867 19.4912 27.4849 20.9359C26.7831 22.3806 25.7625 23.6471 24.5 24.64Z" fill="#F4F3F4"/>
</svg>
