<svg width="49" height="33" viewBox="0 0 49 33" fill="none" xmlns="http://www.w3.org/2000/svg">
<path d="M44.5 2.30005C45.0304 2.30005 45.5391 2.51076 45.9142 2.88584C46.2893 3.26091 46.5 3.76962 46.5 4.30005V28.3C46.5 28.8305 46.2893 29.3392 45.9142 29.7143C45.5391 30.0893 45.0304 30.3 44.5 30.3H4.5C3.96957 30.3 3.46089 30.0893 3.08582 29.7143C2.71074 29.3392 2.5 28.8305 2.5 28.3V4.30005C2.5 3.76962 2.71074 3.26091 3.08582 2.88584C3.46089 2.51076 3.96957 2.30005 4.5 2.30005H44.5ZM44.5 0.300049H4.5C3.43913 0.300049 2.42172 0.721476 1.67157 1.47162C0.921424 2.22177 0.5 3.23918 0.5 4.30005V28.3C0.5 29.3609 0.921424 30.3783 1.67157 31.1285C2.42172 31.8786 3.43913 32.3 4.5 32.3H44.5C45.5609 32.3 46.5783 31.8786 47.3284 31.1285C48.0786 30.3783 48.5 29.3609 48.5 28.3V4.30005C48.5 3.23918 48.0786 2.22177 47.3284 1.47162C46.5783 0.721476 45.5609 0.300049 44.5 0.300049Z" fill="#F4F3F4"/>
<path d="M32.84 15.8001C32.12 19.4801 29.66 20.7401 26.54 20.7401H26.04C25.8552 20.7406 25.6767 20.8076 25.5372 20.9287C25.3977 21.0499 25.3064 21.2172 25.28 21.4001V21.6201L24.68 25.4801V25.6401C24.6492 25.8247 24.5539 25.9923 24.4111 26.1132C24.2682 26.2341 24.0871 26.3003 23.9 26.3001H20.6C20.5314 26.3049 20.4628 26.2928 20.4001 26.265C20.3373 26.2371 20.2823 26.1942 20.24 26.1401C20.1943 26.0893 20.1614 26.0283 20.144 25.9622C20.1266 25.8961 20.1253 25.8269 20.14 25.7601L20.4 24.0801L21.84 14.9501L22.37 15.7001L20.84 25.6201H23.92C23.92 25.6201 23.92 25.6201 23.92 25.5401V25.4001L24.54 21.5201V21.3001C24.6027 20.9588 24.7789 20.6488 25.04 20.4201C25.3012 20.1932 25.634 20.0658 25.98 20.0601H26.5C27.1728 20.0618 27.8436 19.988 28.5 19.8401C29.0857 19.6912 29.6408 19.4408 30.14 19.1001C30.6248 18.7454 31.033 18.2964 31.34 17.7801C31.7165 17.1238 31.9737 16.4061 32.1 15.6601C32.238 15.0502 32.2719 14.4213 32.2 13.8001C32.1288 13.328 31.928 12.8849 31.62 12.5201C31.4725 12.3508 31.2965 12.2086 31.1 12.1001C31.1171 11.9782 31.1438 11.8578 31.18 11.7401L31.24 11.3801C31.5724 11.5511 31.8706 11.7816 32.12 12.0601C32.5233 12.5842 32.7985 13.1953 32.9236 13.8447C33.0486 14.4941 33.02 15.1638 32.84 15.8001Z" fill="#F4F3F4"/>
<path d="M30.44 11.04L30.06 10.94L29.64 10.86C29.1107 10.7782 28.5755 10.7414 28.04 10.75H23.16C23.0461 10.748 22.9333 10.7719 22.83 10.82C22.7169 10.8749 22.6187 10.9563 22.5438 11.0572C22.469 11.1582 22.4197 11.2758 22.4 11.4L21.4 17.97V18.16C21.4334 17.9507 21.5403 17.7601 21.7016 17.6226C21.8629 17.4851 22.0681 17.4097 22.28 17.41H24.1C27.68 17.41 30.49 15.95 31.31 11.75L31.37 11.38C31.153 11.2722 30.9292 11.1787 30.7 11.1L30.44 11.04Z" fill="#F4F3F4"/>
<path d="M31.3 11.38C31.0948 11.2746 30.8806 11.1876 30.66 11.12C30.7601 10.5914 30.7601 10.0487 30.66 9.52005C30.5281 9.05857 30.2802 8.63855 29.94 8.30005C29.2 7.44005 27.78 7.02005 25.72 7.02005H19.36C19.3223 7.05697 19.3007 7.1073 19.3 7.16005L16.72 23.4H20.5L20.4 24.08H16.56C16.4833 24.0805 16.4076 24.0636 16.3383 24.0307C16.2691 23.9978 16.2081 23.9497 16.16 23.89C16.1093 23.8318 16.0723 23.763 16.0515 23.6886C16.0307 23.6142 16.0268 23.5361 16.04 23.46L18.62 7.06005C18.6531 6.84976 18.7597 6.65801 18.9208 6.51886C19.0819 6.37972 19.2871 6.30219 19.5 6.30005H25.72C27.86 6.30005 29.5 6.76005 30.5 7.80005C30.9092 8.28969 31.1954 8.87015 31.3346 9.49294C31.4738 10.1157 31.4619 10.7628 31.3 11.38Z" fill="#F4F3F4"/>
</svg>
