<svg width="21" height="24" viewBox="0 0 21 24" fill="none" xmlns="http://www.w3.org/2000/svg">
<path fill-rule="evenodd" clip-rule="evenodd" d="M15.2012 8.17153C16.8 9.30555 18.7185 9.91378 20.6855 9.91033V6.84338C19.5648 6.60885 18.5472 6.03208 17.7753 5.19441C17.1204 4.7911 16.5586 4.2559 16.1263 3.6236C15.6941 2.99129 15.4012 2.27604 15.2665 1.52433H12.4006V17.058C12.398 17.7456 12.1778 18.4151 11.7711 18.9725C11.3644 19.5299 10.7915 19.9472 10.1329 20.1659C9.47426 20.3846 8.76298 20.3937 8.09888 20.1919C7.43479 19.9901 6.85178 19.5875 6.43068 19.0406C5.76331 18.7073 5.22829 18.1612 4.91297 17.4904C4.59765 16.8196 4.51986 16.0632 4.69215 15.3433C4.86445 14.6234 5.27678 13.9819 5.86261 13.5224C6.44844 13.0628 7.17362 12.812 7.92113 12.8105C8.2641 12.8115 8.60498 12.8634 8.93242 12.9644V9.87183C7.51764 9.90544 6.14356 10.3472 4.97886 11.1428C3.81415 11.9385 2.90951 13.0534 2.37598 14.3507C1.84245 15.648 1.70325 17.0713 1.97546 18.4459C2.24768 19.8204 2.92003 21.0863 3.90892 22.0883C5.0032 22.8114 6.27459 23.2272 7.58874 23.2913C8.90289 23.3555 10.21 23.0656 11.3709 22.4526C12.5317 21.8396 13.5028 20.9264 14.1808 19.8104C14.8587 18.6943 15.2181 17.4171 15.2206 16.1148L15.2012 8.17153Z" fill="#F4F3F4"/>
<path fill-rule="evenodd" clip-rule="evenodd" d="M20.6855 6.84338L20.6858 6.01542C19.6566 6.01975 18.6475 5.73523 17.7753 5.19441C18.5453 6.0345 19.5637 6.61174 20.6855 6.84338ZM15.2665 1.52433C15.2352 1.34946 15.2015 1.2159 15.2015 1.07493V0.574463H11.2471V16.1145C11.2437 16.9847 10.8916 17.818 10.2681 18.4314C9.64459 19.0449 8.80066 19.3885 7.92149 19.3868C7.40383 19.3894 6.89309 19.2709 6.43068 19.0406C6.85178 19.5875 7.43479 19.9901 8.09888 20.1919C8.76298 20.3937 9.47426 20.3846 10.1329 20.1659C10.7915 19.9472 11.3644 19.5299 11.7711 18.9725C12.1778 18.4151 12.398 17.7456 12.4006 17.058V1.52433H15.2665ZM8.93278 9.86515V8.98613C7.30556 8.76734 5.65145 9.10049 4.24002 9.93127C2.82859 10.7621 1.74307 12.0415 1.16037 13.5611C0.577676 15.0806 0.532163 16.7508 1.03125 18.2992C1.53034 19.8477 2.54479 21.1834 3.90892 22.0883C2.92751 21.084 2.26268 19.8183 1.99602 18.4463C1.72936 17.0743 1.87222 15.6551 2.40715 14.3621C2.94207 13.0691 3.8459 11.9583 5.00822 11.1654C6.17054 10.3725 7.54102 9.93184 8.95223 9.89723L8.93278 9.86515Z" fill="#F4F3F4"/>
</svg>
