<svg width="40" height="26" viewBox="0 0 40 26" fill="none" xmlns="http://www.w3.org/2000/svg">
<path d="M5.01579 15.4375L3.78421 13H12.4053L11.42 10.5625H3.37368L2.14211 8.125H14.9505L13.9653 5.6875H1.91221L0.5 3.25H6.65789C6.65789 2.38805 7.00391 1.5614 7.61982 0.951903C8.23573 0.34241 9.07108 0 9.94211 0H29.6474V6.5H34.5737L39.5 13V21.125H36.2158C36.2158 22.4179 35.6968 23.6579 34.7729 24.5721C33.849 25.4864 32.596 26 31.2895 26C29.9829 26 28.7299 25.4864 27.806 24.5721C26.8822 23.6579 26.3632 22.4179 26.3632 21.125H19.7947C19.7947 22.4179 19.2757 23.6579 18.3519 24.5721C17.428 25.4864 16.175 26 14.8684 26C13.5619 26 12.3089 25.4864 11.385 24.5721C10.4611 23.6579 9.94211 22.4179 9.94211 21.125H6.65789V15.4375H5.01579ZM31.2895 23.5625C31.9427 23.5625 32.5693 23.3057 33.0312 22.8486C33.4931 22.3915 33.7526 21.7715 33.7526 21.125C33.7526 20.4785 33.4931 19.8585 33.0312 19.4014C32.5693 18.9443 31.9427 18.6875 31.2895 18.6875C30.6362 18.6875 30.0097 18.9443 29.5478 19.4014C29.0858 19.8585 28.8263 20.4785 28.8263 21.125C28.8263 21.7715 29.0858 22.3915 29.5478 22.8486C30.0097 23.3057 30.6362 23.5625 31.2895 23.5625ZM33.7526 8.9375H29.6474V13H36.9712L33.7526 8.9375ZM14.8684 23.5625C15.5217 23.5625 16.1482 23.3057 16.6101 22.8486C17.0721 22.3915 17.3316 21.7715 17.3316 21.125C17.3316 20.4785 17.0721 19.8585 16.6101 19.4014C16.1482 18.9443 15.5217 18.6875 14.8684 18.6875C14.2152 18.6875 13.5886 18.9443 13.1267 19.4014C12.6648 19.8585 12.4053 20.4785 12.4053 21.125C12.4053 21.7715 12.6648 22.3915 13.1267 22.8486C13.5886 23.3057 14.2152 23.5625 14.8684 23.5625Z" fill="black"/>
</svg>
