<svg width="19" height="22" viewBox="0 0 19 22" fill="none" xmlns="http://www.w3.org/2000/svg">
<path d="M16.2959 5.82397H14.2959C14.2959 3.02397 12.0959 0.823975 9.2959 0.823975C6.4959 0.823975 4.2959 3.02397 4.2959 5.82397H2.2959C1.1959 5.82397 0.295898 6.72397 0.295898 7.82397V19.824C0.295898 20.924 1.1959 21.824 2.2959 21.824H16.2959C17.3959 21.824 18.2959 20.924 18.2959 19.824V7.82397C18.2959 6.72397 17.3959 5.82397 16.2959 5.82397ZM9.2959 2.82397C10.9959 2.82397 12.2959 4.12397 12.2959 5.82397H6.2959C6.2959 4.12397 7.5959 2.82397 9.2959 2.82397ZM16.2959 19.824H2.2959V7.82397H16.2959V19.824ZM9.2959 11.824C7.5959 11.824 6.2959 10.524 6.2959 8.82397H4.2959C4.2959 11.624 6.4959 13.824 9.2959 13.824C12.0959 13.824 14.2959 11.624 14.2959 8.82397H12.2959C12.2959 10.524 10.9959 11.824 9.2959 11.824Z" fill="#F4F3F4"/>
</svg>
