<svg width="23" height="24" viewBox="0 0 23 24" fill="none" xmlns="http://www.w3.org/2000/svg">
<path d="M7.7644 11.9372C7.7644 9.84875 9.45794 8.15532 11.5476 8.15532C13.6373 8.15532 15.3317 9.84875 15.3317 11.9372C15.3317 14.0256 13.6373 15.719 11.5476 15.719C9.45794 15.719 7.7644 14.0256 7.7644 11.9372ZM5.71878 11.9372C5.71878 15.1545 8.32834 17.7625 11.5476 17.7625C14.7669 17.7625 17.3764 15.1545 17.3764 11.9372C17.3764 8.71983 14.7669 6.11183 11.5476 6.11183C8.32834 6.11183 5.71878 8.71983 5.71878 11.9372ZM16.245 5.88085C16.2449 6.1501 16.3247 6.41334 16.4743 6.63727C16.6239 6.86121 16.8365 7.03578 17.0854 7.13892C17.3343 7.24206 17.6081 7.26912 17.8724 7.2167C18.1367 7.16428 18.3794 7.03472 18.57 6.84441C18.7606 6.65409 18.8904 6.41158 18.9431 6.14752C18.9957 5.88346 18.9689 5.60973 18.8659 5.36093C18.7629 5.11214 18.5884 4.89945 18.3644 4.74977C18.1405 4.6001 17.8771 4.52015 17.6077 4.52004H17.6072C17.2461 4.52021 16.8998 4.66362 16.6444 4.91877C16.389 5.17392 16.2453 5.51995 16.245 5.88085ZM6.96163 21.1714C5.85491 21.1211 5.25337 20.9368 4.85362 20.7812C4.32364 20.575 3.9455 20.3294 3.54793 19.9326C3.15036 19.5358 2.90426 19.1583 2.69884 18.6286C2.54301 18.2293 2.35866 17.6279 2.30835 16.5218C2.25332 15.326 2.24233 14.9668 2.24233 11.9373C2.24233 8.90769 2.25423 8.54947 2.30835 7.35266C2.35875 6.2466 2.54446 5.64643 2.69884 5.24592C2.90517 4.71626 3.1509 4.33835 3.54793 3.94101C3.94496 3.54368 4.32273 3.29773 4.85362 3.09243C5.25319 2.93669 5.85491 2.75246 6.96163 2.70218C8.15816 2.64718 8.51759 2.6362 11.5476 2.6362C14.5776 2.6362 14.9374 2.64809 16.135 2.70218C17.2417 2.75255 17.8422 2.93815 18.243 3.09243C18.7729 3.29773 19.1511 3.54422 19.5487 3.94101C19.9462 4.3378 20.1914 4.71626 20.3977 5.24592C20.5536 5.64525 20.7379 6.2466 20.7882 7.35266C20.8433 8.54947 20.8542 8.90769 20.8542 11.9373C20.8542 14.9668 20.8433 15.325 20.7882 16.5218C20.7378 17.6279 20.5526 18.2291 20.3977 18.6286C20.1914 19.1583 19.9457 19.5362 19.5487 19.9326C19.1516 20.329 18.7729 20.575 18.243 20.7812C17.8434 20.9369 17.2417 21.1211 16.135 21.1714C14.9384 21.2264 14.579 21.2374 11.5476 21.2374C8.51623 21.2374 8.1578 21.2264 6.96163 21.1714ZM6.86764 0.661232C5.65921 0.716231 4.83346 0.907729 4.11232 1.18817C3.36549 1.47777 2.73326 1.8663 2.10148 2.4967C1.46971 3.1271 1.08194 3.75995 0.792163 4.50634C0.511555 5.22749 0.319943 6.05229 0.264911 7.26C0.208971 8.46961 0.196167 8.85632 0.196167 11.9372C0.196167 15.018 0.208971 15.4047 0.264911 16.6143C0.319943 17.8221 0.511555 18.6468 0.792163 19.368C1.08194 20.1139 1.4698 20.7475 2.10148 21.3776C2.73317 22.0077 3.36549 22.3957 4.11232 22.6862C4.83482 22.9666 5.65921 23.1581 6.86764 23.2131C8.07861 23.2681 8.46492 23.2818 11.5476 23.2818C14.6303 23.2818 15.0172 23.269 16.2276 23.2131C17.4361 23.1581 18.2613 22.9666 18.9829 22.6862C19.7293 22.3957 20.362 22.008 20.9937 21.3776C21.6255 20.7472 22.0125 20.1139 22.3031 19.368C22.5837 18.6468 22.7762 17.822 22.8303 16.6143C22.8853 15.4038 22.8981 15.018 22.8981 11.9372C22.8981 8.85632 22.8853 8.46961 22.8303 7.26C22.7753 6.0522 22.5837 5.22704 22.3031 4.50634C22.0125 3.76041 21.6245 3.1281 20.9937 2.4967C20.363 1.86531 19.7293 1.47777 18.9838 1.18817C18.2613 0.907729 17.436 0.715324 16.2285 0.661232C15.0182 0.606234 14.6312 0.592529 11.5485 0.592529C8.46583 0.592529 8.07861 0.605326 6.86764 0.661232Z" fill="#F4F3F4"/>
</svg>
