<svg width="22" height="22" viewBox="0 0 22 22" fill="none" xmlns="http://www.w3.org/2000/svg">
<path d="M10.7959 18.884C8.1709 18.884 5.8504 17.54 4.4959 15.524C4.5274 13.424 8.6959 12.269 10.7959 12.269C12.8959 12.269 17.0644 13.424 17.0959 15.524C15.7414 17.54 13.4209 18.884 10.7959 18.884ZM10.7959 3.97397C11.6313 3.97397 12.4325 4.30585 13.0233 4.89659C13.614 5.48733 13.9459 6.28854 13.9459 7.12397C13.9459 7.95941 13.614 8.76062 13.0233 9.35136C12.4325 9.9421 11.6313 10.274 10.7959 10.274C9.96047 10.274 9.15925 9.9421 8.56851 9.35136C7.97777 8.76062 7.6459 7.95941 7.6459 7.12397C7.6459 6.28854 7.97777 5.48733 8.56851 4.89659C9.15925 4.30585 9.96047 3.97397 10.7959 3.97397ZM10.7959 0.823975C9.41702 0.823975 8.05164 1.09557 6.77772 1.62324C5.5038 2.15091 4.34629 2.92434 3.37128 3.89935C1.40215 5.86848 0.295898 8.5392 0.295898 11.324C0.295898 14.1087 1.40215 16.7795 3.37128 18.7486C4.34629 19.7236 5.5038 20.497 6.77772 21.0247C8.05164 21.5524 9.41702 21.824 10.7959 21.824C13.5807 21.824 16.2514 20.7177 18.2205 18.7486C20.1897 16.7795 21.2959 14.1087 21.2959 11.324C21.2959 5.51747 16.5709 0.823975 10.7959 0.823975Z" fill="#F4F3F4"/>
</svg>
