<svg width="28" height="20" viewBox="0 0 28 20" fill="none" xmlns="http://www.w3.org/2000/svg">
<path fill-rule="evenodd" clip-rule="evenodd" d="M24.5435 0.960926C25.7163 1.27764 26.638 2.20174 26.9496 3.37314C27.5165 5.49902 27.5165 9.93733 27.5165 9.93733C27.5165 9.93733 27.5165 14.3756 26.9496 16.5015C26.6337 17.6773 25.712 18.6014 24.5435 18.9137C22.4231 19.4821 13.9152 19.4821 13.9152 19.4821C13.9152 19.4821 5.41174 19.4821 3.28695 18.9137C2.1142 18.597 1.19244 17.6729 0.880865 16.5015C0.313965 14.3756 0.313965 9.93733 0.313965 9.93733C0.313965 9.93733 0.313965 5.49902 0.880865 3.37314C1.19677 2.1974 2.11852 1.2733 3.28695 0.960926C5.41174 0.392578 13.9152 0.392578 13.9152 0.392578C13.9152 0.392578 22.4231 0.392578 24.5435 0.960926ZM18.2644 9.93734L11.1976 14.0286V5.84611L18.2644 9.93734Z" fill="#F4F3F4"/>
</svg>
