<svg width="24" height="20" viewBox="0 0 24 20" fill="none" xmlns="http://www.w3.org/2000/svg">
<path d="M23.7686 2.68576C23.0195 3.00814 22.2319 3.23263 21.4255 3.35368C21.8025 3.28904 22.3573 2.61035 22.5782 2.33564C22.9137 1.92126 23.1694 1.44822 23.3323 0.940544C23.3323 0.902839 23.37 0.848974 23.3323 0.822042C23.3133 0.81167 23.292 0.806235 23.2703 0.806235C23.2487 0.806235 23.2274 0.81167 23.2084 0.822042C22.3326 1.29628 21.4006 1.65823 20.4343 1.89933C20.4007 1.90962 20.3648 1.91055 20.3307 1.90201C20.2965 1.89346 20.2653 1.87578 20.2404 1.85086C20.1652 1.7613 20.0843 1.67673 19.998 1.59769C19.6039 1.24458 19.1568 0.955577 18.673 0.741245C18.0199 0.47331 17.3145 0.357273 16.61 0.401898C15.9264 0.445069 15.259 0.628419 14.6493 0.940544C14.0489 1.26962 13.5212 1.71667 13.098 2.25484C12.6528 2.80876 12.3314 3.45159 12.1554 4.1401C12.0102 4.79502 11.9937 5.4719 12.1069 6.1331C12.1069 6.24621 12.1069 6.26237 12.0099 6.24621C8.16937 5.68063 5.01828 4.31786 2.44355 1.39301C2.33044 1.26373 2.27119 1.26373 2.17962 1.39301C1.05923 3.09513 1.60327 5.78836 3.00375 7.11882C3.19227 7.29657 3.38619 7.46894 3.59087 7.63053C2.94876 7.58495 2.32233 7.41094 1.7487 7.11882C1.64097 7.0488 1.58172 7.0865 1.57633 7.21578C1.56106 7.395 1.56106 7.5752 1.57633 7.75442C1.68873 8.61334 2.02722 9.42701 2.55721 10.1122C3.0872 10.7974 3.78966 11.3295 4.59275 11.6542C4.78853 11.7381 4.99253 11.8013 5.20142 11.8427C4.60699 11.9598 3.99732 11.978 3.39696 11.8966C3.26768 11.8697 3.21921 11.9397 3.26768 12.0636C4.05949 14.2182 5.77778 14.8753 7.03821 15.2416C7.21058 15.2685 7.38294 15.2685 7.57686 15.3116C7.57686 15.3116 7.57686 15.3116 7.54454 15.344C7.17287 16.0226 5.67005 16.4805 4.98058 16.7175C3.72212 17.1695 2.38038 17.3423 1.04846 17.2238C0.838388 17.1915 0.78991 17.1969 0.736045 17.2238C0.682181 17.2508 0.736045 17.31 0.795296 17.3639C1.06462 17.5416 1.33394 17.6978 1.61404 17.8487C2.44789 18.3035 3.32943 18.6648 4.24263 18.9259C8.97195 20.2295 14.2938 19.2707 17.8435 15.7425C20.6336 12.9739 21.614 9.1549 21.614 5.33051C21.614 5.18508 21.7917 5.09889 21.8941 5.02348C22.6 4.47347 23.2223 3.82391 23.7416 3.09513C23.8316 2.98649 23.8777 2.84818 23.8709 2.7073C23.8709 2.62651 23.8709 2.64267 23.7686 2.68576Z" fill="#F4F3F4"/>
</svg>
