<svg width="49" height="33" viewBox="0 0 49 33" fill="none" xmlns="http://www.w3.org/2000/svg">
<path d="M44.5 2.30005C45.0304 2.30005 45.5391 2.51076 45.9142 2.88584C46.2893 3.26091 46.5 3.76962 46.5 4.30005V28.3C46.5 28.8305 46.2893 29.3392 45.9142 29.7143C45.5391 30.0893 45.0304 30.3 44.5 30.3H4.5C3.96957 30.3 3.46086 30.0893 3.08579 29.7143C2.71071 29.3392 2.5 28.8305 2.5 28.3V4.30005C2.5 3.76962 2.71071 3.26091 3.08579 2.88584C3.46086 2.51076 3.96957 2.30005 4.5 2.30005H44.5ZM44.5 0.300049H4.5C3.43913 0.300049 2.42172 0.721476 1.67157 1.47162C0.921427 2.22177 0.5 3.23918 0.5 4.30005L0.5 28.3C0.5 29.3609 0.921427 30.3783 1.67157 31.1285C2.42172 31.8786 3.43913 32.3 4.5 32.3H44.5C45.5609 32.3 46.5783 31.8786 47.3284 31.1285C48.0786 30.3783 48.5 29.3609 48.5 28.3V4.30005C48.5 3.23918 48.0786 2.22177 47.3284 1.47162C46.5783 0.721476 45.5609 0.300049 44.5 0.300049Z" fill="#F4F3F4"/>
<path d="M24.36 11.69L22.36 20.94H19.96L21.96 11.69H24.36ZM34.42 17.69L35.68 14.22L36.41 17.69H34.42ZM37.09 20.97H39.31L37.37 11.72H35.37C35.1548 11.722 34.945 11.7876 34.7671 11.9086C34.5891 12.0296 34.451 12.2006 34.37 12.4L30.78 20.97H33.3L33.79 19.59H36.79L37.09 20.97ZM30.85 17.97C30.86 15.48 27.5 15.3 27.5 14.3C27.5 13.97 27.82 13.62 28.5 13.53C29.3094 13.4489 30.1255 13.5907 30.86 13.94L31.28 11.94C30.5642 11.6695 29.8053 11.5306 29.04 11.53C26.68 11.53 25.04 12.79 25.04 14.59C25.04 15.92 26.23 16.66 27.13 17.1C28.03 17.54 28.38 17.85 28.37 18.25C28.37 18.87 27.63 19.15 26.94 19.16C26.0892 19.1679 25.2501 18.9616 24.5 18.56L24.07 20.56C24.9173 20.8916 25.8202 21.0579 26.73 21.05C29.24 21.05 30.89 19.81 30.9 17.89M20.99 11.66L17.11 20.91H14.5L12.59 13.52C12.5735 13.3471 12.5123 13.1815 12.4124 13.0395C12.3124 12.8975 12.1772 12.7839 12.02 12.71C11.2698 12.3505 10.4767 12.0884 9.66003 11.93L9.72003 11.66H13.79C14.0561 11.661 14.3133 11.7557 14.5164 11.9277C14.7194 12.0996 14.8553 12.3377 14.9 12.6L15.9 17.95L18.39 11.66H20.99Z" fill="#F4F3F4"/>
</svg>
