<svg width="121" height="29" viewBox="0 0 121 29" fill="none" xmlns="http://www.w3.org/2000/svg">
<path d="M14.6483 18.324V10.2753H16.6145V18.324H14.6483ZM15.5681 15.2425V13.5982H19.7534V15.2425H15.5681ZM15.5681 12.0115V10.2753H20.2134V12.0115H15.5681ZM21.756 18.324V10.2753H23.7222V16.5878H27.3096V18.324H21.756ZM31.9528 18.393C31.2859 18.393 30.6918 18.2588 30.1706 17.9905C29.657 17.7146 29.2507 17.339 28.9518 16.8637C28.6528 16.3808 28.5033 15.8365 28.5033 15.231V10.2638H30.481V15.1275C30.481 15.4188 30.5462 15.6794 30.6765 15.9094C30.8068 16.1393 30.9831 16.3233 31.2054 16.4613C31.4354 16.5916 31.6845 16.6567 31.9528 16.6567C32.2364 16.6567 32.4932 16.5916 32.7231 16.4613C32.9531 16.3233 33.1332 16.1393 33.2636 15.9094C33.4015 15.6794 33.4705 15.4188 33.4705 15.1275V10.2638H35.3792V15.231C35.3792 15.8365 35.2297 16.3808 34.9308 16.8637C34.6395 17.339 34.2371 17.7146 33.7235 17.9905C33.2099 18.2588 32.6197 18.393 31.9528 18.393ZM40.998 18.439C40.3924 18.439 39.8329 18.3355 39.3193 18.1285C38.8134 17.9215 38.3726 17.6341 37.997 17.2661C37.6291 16.8905 37.3416 16.4498 37.1346 15.9439C36.9277 15.4303 36.8242 14.8707 36.8242 14.2651C36.8242 13.6672 36.9277 13.1153 37.1346 12.6094C37.3416 12.0958 37.6291 11.6512 37.997 11.2756C38.3726 10.9 38.8134 10.6087 39.3193 10.4018C39.8329 10.1948 40.3924 10.0913 40.998 10.0913C41.5959 10.0913 42.1478 10.1948 42.6537 10.4018C43.1597 10.6087 43.5966 10.9 43.9645 11.2756C44.3401 11.6512 44.6314 12.0958 44.8384 12.6094C45.0453 13.1153 45.1488 13.6711 45.1488 14.2766C45.1488 14.8745 45.0453 15.4264 44.8384 15.9324C44.6314 16.4383 44.3401 16.879 43.9645 17.2547C43.5966 17.6303 43.1597 17.9215 42.6537 18.1285C42.1478 18.3355 41.5959 18.439 40.998 18.439ZM40.998 16.5878C41.3123 16.5878 41.5997 16.5303 41.8604 16.4153C42.121 16.3003 42.3471 16.1393 42.5388 15.9324C42.7381 15.7254 42.8914 15.4801 42.9987 15.1965C43.106 14.9129 43.1597 14.6063 43.1597 14.2766C43.1597 13.9394 43.106 13.6289 42.9987 13.3453C42.8914 13.0617 42.7381 12.8164 42.5388 12.6094C42.3471 12.3948 42.121 12.23 41.8604 12.115C41.5997 12 41.3123 11.9425 40.998 11.9425C40.6837 11.9425 40.3924 12 40.1242 12.115C39.8635 12.23 39.6336 12.3948 39.4343 12.6094C39.2426 12.8164 39.0932 13.0617 38.9858 13.3453C38.8785 13.6289 38.8249 13.9394 38.8249 14.2766C38.8249 14.7212 38.9169 15.1198 39.1008 15.4724C39.2925 15.8174 39.5492 16.0895 39.8712 16.2888C40.2008 16.4881 40.5764 16.5878 40.998 16.5878ZM46.6386 18.324V10.2753H50.2835C50.8048 10.2753 51.2724 10.3864 51.6863 10.6087C52.1002 10.831 52.426 11.1377 52.6637 11.5286C52.9089 11.9119 53.0316 12.3526 53.0316 12.8509C53.0316 13.3568 52.9089 13.809 52.6637 14.2076C52.426 14.6063 52.1002 14.9244 51.6863 15.162C51.2724 15.392 50.8048 15.5069 50.2835 15.5069H48.5128V18.324H46.6386ZM51.1114 18.324L49.0647 14.6791L51.0769 14.3916L53.3535 18.3355L51.1114 18.324ZM48.5128 13.9777H50.1111C50.3104 13.9777 50.4828 13.9355 50.6285 13.8512C50.7818 13.7592 50.8968 13.6366 50.9734 13.4833C51.0578 13.33 51.0999 13.1537 51.0999 12.9544C51.0999 12.7474 51.0501 12.5673 50.9504 12.4139C50.8584 12.2606 50.7243 12.1418 50.548 12.0575C50.3794 11.9655 50.1762 11.9195 49.9386 11.9195H48.5128V13.9777ZM54.7345 18.324V10.2753H60.3456V11.954H56.6547V16.6452H60.472V18.324H54.7345ZM55.6658 15.0355V13.4258H59.8396V15.0355H55.6658ZM64.8244 18.439C64.0272 18.439 63.3527 18.301 62.8008 18.025C62.2565 17.7414 61.7889 17.3428 61.398 16.8292L62.5938 15.4839C62.9694 15.9975 63.3488 16.3425 63.7321 16.5188C64.1154 16.6951 64.5102 16.7832 64.9164 16.7832C65.1234 16.7832 65.3074 16.7564 65.4683 16.7027C65.637 16.6491 65.7673 16.5724 65.8593 16.4728C65.9589 16.3655 66.0087 16.239 66.0087 16.0933C66.0087 15.9784 65.9781 15.8749 65.9168 15.7829C65.8631 15.6909 65.7864 15.6104 65.6868 15.5414C65.5871 15.4724 65.4722 15.4111 65.3419 15.3575C65.2115 15.2961 65.0659 15.2463 64.9049 15.208C64.7516 15.1697 64.5945 15.1352 64.4335 15.1045C63.9889 15.0125 63.6018 14.8937 63.2722 14.7481C62.9502 14.5948 62.6781 14.4146 62.4558 14.2076C62.2412 13.993 62.0802 13.7516 61.9729 13.4833C61.8656 13.2073 61.8119 12.8969 61.8119 12.5519C61.8119 12.0613 61.9499 11.6321 62.2259 11.2641C62.5095 10.8962 62.8813 10.6087 63.3412 10.4018C63.8011 10.1948 64.2994 10.0913 64.8359 10.0913C65.6178 10.0913 66.2464 10.2178 66.7216 10.4708C67.2045 10.7161 67.5878 11.0572 67.8714 11.4941L66.6526 12.6784C66.415 12.3718 66.1429 12.1418 65.8363 11.9885C65.5373 11.8352 65.223 11.7586 64.8934 11.7586C64.6711 11.7586 64.4757 11.7854 64.307 11.839C64.1384 11.8927 64.0081 11.9732 63.9161 12.0805C63.8318 12.1801 63.7896 12.3028 63.7896 12.4484C63.7896 12.5711 63.8241 12.6822 63.8931 12.7819C63.9697 12.8739 64.0732 12.9544 64.2035 13.0233C64.3338 13.0923 64.4833 13.1537 64.652 13.2073C64.8206 13.2533 64.9969 13.2916 65.1809 13.3223C65.6025 13.4066 65.9819 13.5178 66.3192 13.6557C66.6641 13.7937 66.9593 13.9662 67.2045 14.1732C67.4498 14.3725 67.6376 14.6101 67.768 14.886C67.9059 15.1543 67.9749 15.4648 67.9749 15.8174C67.9749 16.3693 67.8408 16.8407 67.5725 17.2317C67.3042 17.6226 66.9324 17.9215 66.4572 18.1285C65.9819 18.3355 65.4377 18.439 64.8244 18.439ZM73.1004 18.439C72.4948 18.439 71.9352 18.3393 71.4217 18.14C70.9157 17.933 70.475 17.6456 70.0994 17.2776C69.7314 16.902 69.444 16.4613 69.237 15.9554C69.0377 15.4418 68.9381 14.8822 68.9381 14.2766C68.9381 13.6787 69.0415 13.1268 69.2485 12.6209C69.4631 12.115 69.7621 11.6742 70.1454 11.2986C70.5286 10.923 70.9771 10.6317 71.4906 10.4248C72.0119 10.2178 72.5753 10.1143 73.1809 10.1143C73.5641 10.1143 73.9397 10.1641 74.3077 10.2638C74.6756 10.3634 75.0167 10.5129 75.331 10.7122C75.653 10.9039 75.9289 11.1377 76.1589 11.4136L74.9516 12.7819C74.714 12.5213 74.4457 12.3181 74.1467 12.1725C73.8554 12.0268 73.5296 11.954 73.1694 11.954C72.8628 11.954 72.5715 12.0077 72.2955 12.115C72.0272 12.2223 71.7934 12.3794 71.5941 12.5864C71.3948 12.7934 71.2377 13.0387 71.1227 13.3223C71.0077 13.6059 70.9502 13.9279 70.9502 14.2881C70.9502 14.6407 71.0039 14.9627 71.1112 15.254C71.2262 15.5376 71.3872 15.7829 71.5941 15.9899C71.8088 16.1892 72.0617 16.3425 72.353 16.4498C72.652 16.5571 72.9816 16.6108 73.3418 16.6108C73.5795 16.6108 73.8056 16.5801 74.0202 16.5188C74.2425 16.4498 74.4495 16.354 74.6411 16.2313C74.8328 16.1087 74.9976 15.9707 75.1355 15.8174L76.0899 17.3351C75.9059 17.5421 75.653 17.7299 75.331 17.8985C75.0167 18.0672 74.6641 18.2013 74.2732 18.301C73.8899 18.393 73.499 18.439 73.1004 18.439ZM77.4163 18.324V10.2753H83.0274V11.954H79.3365V16.6452H83.1539V18.324H77.4163ZM78.3477 15.0355V13.4258H82.5215V15.0355H78.3477ZM84.8272 18.324V10.2753H86.5864L90.8177 16.0129L90.4383 15.9669C90.3846 15.5376 90.3386 15.139 90.3003 14.7711C90.262 14.3955 90.2351 14.0045 90.2198 13.5982C90.2122 13.192 90.2083 12.7244 90.2083 12.1955V10.2753H92.117V18.324H90.3348L85.9425 12.4139L86.5059 12.4944C86.5596 12.962 86.6017 13.3491 86.6324 13.6557C86.6631 13.9624 86.6861 14.2268 86.7014 14.4491C86.7167 14.6637 86.7282 14.8669 86.7359 15.0585C86.7436 15.2425 86.7474 15.4494 86.7474 15.6794V18.324H84.8272ZM93.7108 15.8634V14.1732H97.6662V15.8634H93.7108ZM100.992 18.324V12.0115H98.6239V10.2753H105.408V12.0115H102.959V18.324H100.992Z" fill="#DDF52F"/>
<rect x="1" y="1" width="118.296" height="26.6479" rx="13.324" stroke="#DDF52F" stroke-width="1.72472"/>
</svg>
