<svg width="101" height="15" viewBox="0 0 101 15" fill="none" xmlns="http://www.w3.org/2000/svg">
<path d="M8.5 12.0553L13.444 15L12.132 9.45L16.5 5.71579L10.748 5.22632L8.5 0L6.252 5.22632L0.5 5.71579L4.86 9.45L3.556 15L8.5 12.0553Z" fill="#201E2F"/>
<path d="M29.5 12.0553L34.444 15L33.132 9.45L37.5 5.71579L31.748 5.22632L29.5 0L27.252 5.22632L21.5 5.71579L25.86 9.45L24.556 15L29.5 12.0553Z" fill="#201E2F"/>
<path d="M50.5 12.0553L55.444 15L54.132 9.45L58.5 5.71579L52.748 5.22632L50.5 0L48.252 5.22632L42.5 5.71579L46.86 9.45L45.556 15L50.5 12.0553Z" fill="#201E2F"/>
<path d="M71.5 12.0553L76.444 15L75.132 9.45L79.5 5.71579L73.748 5.22632L71.5 0L69.252 5.22632L63.5 5.71579L67.86 9.45L66.556 15L71.5 12.0553Z" fill="#201E2F"/>
<path d="M92.5 12.0553L97.444 15L96.132 9.45L100.5 5.71579L94.748 5.22632L92.5 0L90.252 5.22632L84.5 5.71579L88.86 9.45L87.556 15L92.5 12.0553Z" fill="#201E2F"/>
</svg>
